<?xml version="1.0" encoding="UTF-8" standalone="no"?>
<!-- Created with Inkscape (http://www.inkscape.org/) -->

<svg
   xmlns:dc="http://purl.org/dc/elements/1.1/"
   xmlns:cc="http://creativecommons.org/ns#"
   xmlns:rdf="http://www.w3.org/1999/02/22-rdf-syntax-ns#"
   xmlns:svg="http://www.w3.org/2000/svg"
   xmlns="http://www.w3.org/2000/svg"
   xmlns:xlink="http://www.w3.org/1999/xlink"
   xmlns:sodipodi="http://sodipodi.sourceforge.net/DTD/sodipodi-0.dtd"
   xmlns:inkscape="http://www.inkscape.org/namespaces/inkscape"
   width="172.93341mm"
   height="82.800529mm"
   viewBox="0 0 612.75618 293.3877"
   id="svg4192"
   version="1.1"
   inkscape:version="0.91 r13725"
   sodipodi:docname="logo.svg">
  <defs
     id="defs4194">
    <path
       style="opacity:1;fill:none;fill-opacity:1;stroke:none;stroke-width:20;stroke-linecap:round;stroke-linejoin:round;stroke-miterlimit:4;stroke-dasharray:none;stroke-dashoffset:0;stroke-opacity:1"
       id="path4151"
       sodipodi:type="arc"
       sodipodi:cx="339"
       sodipodi:cy="914.86218"
       sodipodi:rx="321"
       sodipodi:ry="53.5"
       sodipodi:start="3.936768"
       sodipodi:end="3.7179286"
       d="m 114.24877,876.66391 a 321,53.5 0 0 1 441.30797,-1.293 321,53.5 0 0 1 31.87824,73.37058 321,53.5 0 0 1 -437.8216,9.31718 321,53.5 0 0 1 -79.760651,-72.3516 L 339,914.86218 Z" />
    <path
       style="opacity:1;fill:none;fill-opacity:1;stroke:none;stroke-width:20;stroke-linecap:round;stroke-linejoin:round;stroke-miterlimit:4;stroke-dasharray:none;stroke-dashoffset:0;stroke-opacity:1"
       id="path4807"
       sodipodi:type="arc"
       sodipodi:cx="339"
       sodipodi:cy="914.86218"
       sodipodi:rx="321"
       sodipodi:ry="53.5"
       sodipodi:start="3.936768"
       sodipodi:end="3.7179286"
       d="m 114.24877,876.66391 a 321,53.5 0 0 1 441.30797,-1.293 321,53.5 0 0 1 31.87824,73.37058 321,53.5 0 0 1 -437.8216,9.31718 321,53.5 0 0 1 -79.760651,-72.3516 L 339,914.86218 Z" />
    <linearGradient
       inkscape:collect="always"
       xlink:href="#linearGradient4153"
       id="linearGradient4159"
       x1="340.13141"
       y1="719.53998"
       x2="336.345"
       y2="907.62024"
       gradientUnits="userSpaceOnUse" />
    <linearGradient
       inkscape:collect="always"
       id="linearGradient4153">
      <stop
         style="stop-color:#f58400;stop-opacity:1;"
         offset="0"
         id="stop4155" />
      <stop
         style="stop-color:#f5a700;stop-opacity:1"
         offset="1"
         id="stop4157" />
    </linearGradient>
    <path
       style="opacity:1;fill:none;fill-opacity:1;stroke:none;stroke-width:20;stroke-linecap:round;stroke-linejoin:round;stroke-miterlimit:4;stroke-dasharray:none;stroke-dashoffset:0;stroke-opacity:1"
       id="path4813"
       sodipodi:type="arc"
       sodipodi:cx="339"
       sodipodi:cy="914.86218"
       sodipodi:rx="321"
       sodipodi:ry="53.5"
       sodipodi:start="3.936768"
       sodipodi:end="3.7179286"
       d="m 114.24877,876.66391 a 321,53.5 0 0 1 441.30797,-1.293 321,53.5 0 0 1 31.87824,73.37058 321,53.5 0 0 1 -437.8216,9.31718 321,53.5 0 0 1 -79.760651,-72.3516 L 339,914.86218 Z" />
    <linearGradient
       inkscape:collect="always"
       xlink:href="#linearGradient4153"
       id="linearGradient4834"
       gradientUnits="userSpaceOnUse"
       x1="340.13141"
       y1="719.53998"
       x2="336.345"
       y2="907.62024" />
    <linearGradient
       inkscape:collect="always"
       xlink:href="#linearGradient4153"
       id="linearGradient4836"
       gradientUnits="userSpaceOnUse"
       x1="340.13141"
       y1="719.53998"
       x2="336.345"
       y2="907.62024" />
    <linearGradient
       inkscape:collect="always"
       xlink:href="#linearGradient4153"
       id="linearGradient4838"
       gradientUnits="userSpaceOnUse"
       x1="340.13141"
       y1="719.53998"
       x2="336.345"
       y2="907.62024" />
    <linearGradient
       inkscape:collect="always"
       xlink:href="#linearGradient4153"
       id="linearGradient4840"
       gradientUnits="userSpaceOnUse"
       x1="340.13141"
       y1="719.53998"
       x2="336.345"
       y2="907.62024" />
    <linearGradient
       inkscape:collect="always"
       xlink:href="#linearGradient4153"
       id="linearGradient4842"
       gradientUnits="userSpaceOnUse"
       x1="340.13141"
       y1="719.53998"
       x2="336.345"
       y2="907.62024" />
  </defs>
  <sodipodi:namedview
     id="base"
     pagecolor="#ffffff"
     bordercolor="#666666"
     borderopacity="1.0"
     inkscape:pageopacity="0.0"
     inkscape:pageshadow="2"
     inkscape:zoom="1.4"
     inkscape:cx="237.7255"
     inkscape:cy="39.256321"
     inkscape:document-units="px"
     inkscape:current-layer="layer1"
     showgrid="false"
     borderlayer="true"
     inkscape:showpageshadow="false"
     fit-margin-top="0"
     fit-margin-left="0"
     fit-margin-right="0"
     fit-margin-bottom="0"
     inkscape:window-width="1920"
     inkscape:window-height="1080"
     inkscape:window-x="0"
     inkscape:window-y="0"
     inkscape:window-maximized="1" />
  <metadata
     id="metadata4197">
    <rdf:RDF>
      <cc:Work
         rdf:about="">
        <dc:format>image/svg+xml</dc:format>
        <dc:type
           rdf:resource="http://purl.org/dc/dcmitype/StillImage" />
        <dc:title />
      </cc:Work>
    </rdf:RDF>
  </metadata>
  <g
     inkscape:label="Layer 1"
     inkscape:groupmode="layer"
     id="layer1"
     transform="translate(4.9854263e-8,-758.97449)">
    <g
       id="g4191">
      <path
         sodipodi:nodetypes="ccccccccccc"
         inkscape:connector-curvature="0"
         id="path4894"
         d="m 86.8171,1046.4965 -58.722777,-42.4418 73.931087,-137.56058 144.45181,-29.29442 122.22846,0 131.50409,-4.57107 107.07617,21.21321 -62.81372,105.58632 -50.16186,53.41544 -347.83824,-76.64894 z"
         style="fill:#1a1a1a;fill-opacity:1;fill-rule:evenodd;stroke:#1a1a1a;stroke-width:1px;stroke-linecap:round;stroke-linejoin:round;stroke-opacity:1" />
      <g
         id="g4846"
         style="font-style:normal;font-variant:normal;font-weight:normal;font-stretch:normal;font-size:198.59434509px;line-height:125%;font-family:'Arial Black';-inkscape-font-specification:'Arial Black, ';letter-spacing:0px;word-spacing:0px;fill:#1a1a1a;fill-opacity:1;stroke:#1a1a1a;stroke-width:35.30188751;stroke-linecap:round;stroke-linejoin:round;stroke-miterlimit:4;stroke-dasharray:none;stroke-opacity:1"
         transform="matrix(0.8592014,0,0,0.8405269,1.503944,265.46459)">
        <path
           inkscape:connector-curvature="0"
           id="path4848"
           style="fill:#1a1a1a;fill-opacity:1;stroke:#1a1a1a;stroke-width:35.30188751;stroke-linecap:round;stroke-linejoin:round;stroke-miterlimit:4;stroke-dasharray:none;stroke-opacity:1"
           d="m 109.76626,733.3916 39.25305,-4.94832 3.39591,26.93836 -39.25305,4.94833 -3.39591,-26.93837 z m 4.89981,38.86822 39.25305,-4.94833 12.49209,99.09471 q 2.38927,18.95306 0.59374,27.19387 -1.69932,8.22869 -8.48883,14.06919 -6.78951,5.84051 -20.54732,7.57485 -11.3526,1.43113 -28.61357,0.18628 l 2.27876,-29.21752 q 4.8355,0.3678 7.04829,0.0889 5.00284,-0.63067 7.16385,-4.42164 2.17314,-3.69476 0.88755,-13.89285 l -12.06761,-95.72741 z" />
        <path
           inkscape:connector-curvature="0"
           id="path4850"
           style="fill:#1a1a1a;fill-opacity:1;stroke:#1a1a1a;stroke-width:35.30188751;stroke-linecap:round;stroke-linejoin:round;stroke-miterlimit:4;stroke-dasharray:none;stroke-opacity:1"
           d="m 183.34509,838.51233 38.91571,-5.82168 q 2.80243,6.83881 7.32393,9.60175 4.5215,2.76294 11.78336,2.36523 7.93964,-0.43483 12.11115,-4.06233 3.251,-2.70304 3.04419,-6.47921 -0.23333,-4.26029 -4.81454,-6.34016 -3.28536,-1.47102 -17.16705,-3.13864 -20.72307,-2.45832 -28.92391,-5.01975 -8.10933,-2.66356 -14.02605,-9.62316 -5.8199,-6.9649 -6.32898,-16.26008 -0.55679,-10.1666 4.9465,-17.84876 5.5033,-7.68216 15.66735,-11.83208 10.15874,-4.24674 27.58721,-5.20125 18.39671,-1.00754 27.26472,1.32312 8.96484,2.32536 15.0978,7.9135 6.22978,5.58284 10.65427,15.44051 l -37.17286,5.72623 q -1.72282,-4.85852 -5.23895,-6.99671 -4.81728,-2.84386 -11.40137,-2.48327 -6.68091,0.3659 -9.64673,2.95621 -2.8743,2.48818 -2.6887,5.87705 0.20681,3.77617 4.18585,5.50055 3.97905,1.72438 17.03842,2.563 19.7774,1.15049 29.58047,4.59533 9.80307,3.44483 15.24098,10.52777 5.53473,7.07763 6.01728,15.88869 0.48786,8.90788 -4.47298,17.6286 -4.86401,8.71541 -16.20724,14.38664 -11.25171,5.5691 -31.19761,6.66149 -28.17602,1.54312 -40.62243,-5.83578 -12.34958,-7.38421 -16.54979,-22.01281 z" />
        <path
           inkscape:connector-curvature="0"
           id="path4852"
           style="fill:#1a1a1a;fill-opacity:1;stroke:#1a1a1a;stroke-width:35.30188751;stroke-linecap:round;stroke-linejoin:round;stroke-miterlimit:4;stroke-dasharray:none;stroke-opacity:1"
           d="m 357.13529,758.38748 18.81216,0.008 -0.0121,28.89703 -18.81216,-0.008 -0.031,74.08499 -39.56371,-0.0166 0.031,-74.085 -14.73943,-0.006 0.0121,-28.89703 14.73943,0.006 0.002,-4.65456 q 0.003,-6.30304 1.36338,-13.86612 1.36075,-7.56309 5.04759,-12.31307 3.78385,-4.84691 10.47599,-7.75321 6.78915,-3.00323 19.78312,-2.99779 10.37578,0.004 30.15662,2.43687 l -4.37363,23.85276 q -7.07831,-1.1666 -11.44196,-1.16842 -5.33334,-0.002 -7.66139,1.83922 -2.32801,1.74448 -3.29933,5.62287 -0.48574,2.13314 -0.48862,9.018 z" />
        <path
           inkscape:connector-curvature="0"
           id="path4854"
           style="fill:#1a1a1a;fill-opacity:1;stroke:#1a1a1a;stroke-width:35.30188751;stroke-linecap:round;stroke-linejoin:round;stroke-miterlimit:4;stroke-dasharray:none;stroke-opacity:1"
           d="m 387.62075,757.76463 46.75336,2.78881 14.64975,29.62796 20.68146,-27.52047 43.46223,2.5925 -37.96243,46.88954 34.34726,56.05989 -45.97898,-2.74262 -16.99769,-34.23655 -24.33499,31.77108 -42.68785,-2.54631 40.57428,-51.59086 -32.5064,-51.09297 z" />
        <path
           inkscape:connector-curvature="0"
           id="path4856"
           style="fill:#1a1a1a;fill-opacity:1;stroke:#1a1a1a;stroke-width:35.30188751;stroke-linecap:round;stroke-linejoin:round;stroke-miterlimit:4;stroke-dasharray:none;stroke-opacity:1"
           d="m 538.97377,768.57482 36.50644,5.67904 -2.59357,16.67224 q 6.95429,-10.00756 13.13774,-13.16737 6.29417,-3.24072 14.53447,-1.95884 8.62357,1.34151 18.04132,8.30218 l -16.39562,25.90896 q -6.45169,-3.94773 -10.47602,-4.57377 -7.6654,-1.19244 -12.86514,4.47566 -7.42272,7.97197 -11.22365,32.40542 l -5.3064,34.11101 -39.18933,-6.0964 15.82976,-101.75813 z" />
      </g>
      <g
         id="g4177">
        <g
           id="g4807"
           style="font-style:normal;font-variant:normal;font-weight:normal;font-stretch:normal;font-size:198.59434509px;line-height:125%;font-family:'Arial Black';-inkscape-font-specification:'Arial Black, ';letter-spacing:0px;word-spacing:0px;fill:none;fill-opacity:1;stroke:#1a1a1a;stroke-width:27.4211998;stroke-linecap:round;stroke-linejoin:round;stroke-miterlimit:4;stroke-dasharray:none;stroke-opacity:1"
           transform="matrix(1.094044,0,0,1.094044,-82.96333,-9.18746)">
          <path
             inkscape:connector-curvature="0"
             id="path4809"
             style="fill:none;fill-opacity:1;stroke:#1a1a1a;stroke-width:27.4211998;stroke-linecap:round;stroke-linejoin:round;stroke-miterlimit:4;stroke-dasharray:none;stroke-opacity:1"
             d="m 109.76626,733.3916 39.25305,-4.94832 3.39591,26.93836 -39.25305,4.94833 -3.39591,-26.93837 z m 4.89981,38.86822 39.25305,-4.94833 12.49209,99.09471 q 2.38927,18.95306 0.59374,27.19387 -1.69932,8.22869 -8.48883,14.06919 -6.78951,5.84051 -20.54732,7.57485 -11.3526,1.43113 -28.61357,0.18628 l 2.27876,-29.21752 q 4.8355,0.3678 7.04829,0.0889 5.00284,-0.63067 7.16385,-4.42164 2.17314,-3.69476 0.88755,-13.89285 l -12.06761,-95.72741 z" />
          <path
             inkscape:connector-curvature="0"
             id="path4811"
             style="fill:none;fill-opacity:1;stroke:#1a1a1a;stroke-width:27.4211998;stroke-linecap:round;stroke-linejoin:round;stroke-miterlimit:4;stroke-dasharray:none;stroke-opacity:1"
             d="m 183.34509,838.51233 38.91571,-5.82168 q 2.80243,6.83881 7.32393,9.60175 4.5215,2.76294 11.78336,2.36523 7.93964,-0.43483 12.11115,-4.06233 3.251,-2.70304 3.04419,-6.47921 -0.23333,-4.26029 -4.81454,-6.34016 -3.28536,-1.47102 -17.16705,-3.13864 -20.72307,-2.45832 -28.92391,-5.01975 -8.10933,-2.66356 -14.02605,-9.62316 -5.8199,-6.9649 -6.32898,-16.26008 -0.55679,-10.1666 4.9465,-17.84876 5.5033,-7.68216 15.66735,-11.83208 10.15874,-4.24674 27.58721,-5.20125 18.39671,-1.00754 27.26472,1.32312 8.96484,2.32536 15.0978,7.9135 6.22978,5.58284 10.65427,15.44051 l -37.17286,5.72623 q -1.72282,-4.85852 -5.23895,-6.99671 -4.81728,-2.84386 -11.40137,-2.48327 -6.68091,0.3659 -9.64673,2.95621 -2.8743,2.48818 -2.6887,5.87705 0.20681,3.77617 4.18585,5.50055 3.97905,1.72438 17.03842,2.563 19.7774,1.15049 29.58047,4.59533 9.80307,3.44483 15.24098,10.52777 5.53473,7.07763 6.01728,15.88869 0.48786,8.90788 -4.47298,17.6286 -4.86401,8.71541 -16.20724,14.38664 -11.25171,5.5691 -31.19761,6.66149 -28.17602,1.54312 -40.62243,-5.83578 -12.34958,-7.38421 -16.54979,-22.01281 z" />
          <path
             inkscape:connector-curvature="0"
             id="path4814"
             style="fill:none;fill-opacity:1;stroke:#1a1a1a;stroke-width:27.4211998;stroke-linecap:round;stroke-linejoin:round;stroke-miterlimit:4;stroke-dasharray:none;stroke-opacity:1"
             d="m 357.13529,758.38748 18.81216,0.008 -0.0121,28.89703 -18.81216,-0.008 -0.031,74.08499 -39.56371,-0.0166 0.031,-74.085 -14.73943,-0.006 0.0121,-28.89703 14.73943,0.006 0.002,-4.65456 q 0.003,-6.30304 1.36338,-13.86612 1.36075,-7.56309 5.04759,-12.31307 3.78385,-4.84691 10.47599,-7.75321 6.78915,-3.00323 19.78312,-2.99779 10.37578,0.004 30.15662,2.43687 l -4.37363,23.85276 q -7.07831,-1.1666 -11.44196,-1.16842 -5.33334,-0.002 -7.66139,1.83922 -2.32801,1.74448 -3.29933,5.62287 -0.48574,2.13314 -0.48862,9.018 z" />
          <path
             inkscape:connector-curvature="0"
             id="path4816"
             style="fill:none;fill-opacity:1;stroke:#1a1a1a;stroke-width:27.4211998;stroke-linecap:round;stroke-linejoin:round;stroke-miterlimit:4;stroke-dasharray:none;stroke-opacity:1"
             d="m 387.62075,757.76463 46.75336,2.78881 14.64975,29.62796 20.68146,-27.52047 43.46223,2.5925 -37.96243,46.88954 34.34726,56.05989 -45.97898,-2.74262 -16.99769,-34.23655 -24.33499,31.77108 -42.68785,-2.54631 40.57428,-51.59086 -32.5064,-51.09297 z" />
          <path
             inkscape:connector-curvature="0"
             id="path4818"
             style="fill:none;fill-opacity:1;stroke:#1a1a1a;stroke-width:27.4211998;stroke-linecap:round;stroke-linejoin:round;stroke-miterlimit:4;stroke-dasharray:none;stroke-opacity:1"
             d="m 538.97377,768.57482 36.50644,5.67904 -2.59357,16.67224 q 6.95429,-10.00756 13.13774,-13.16737 6.29417,-3.24072 14.53447,-1.95884 8.62357,1.34151 18.04132,8.30218 l -16.39562,25.90896 q -6.45169,-3.94773 -10.47602,-4.57377 -7.6654,-1.19244 -12.86514,4.47566 -7.42272,7.97197 -11.22365,32.40542 l -5.3064,34.11101 -39.18933,-6.0964 15.82976,-101.75813 z" />
        </g>
        <g
           transform="matrix(1.094044,0,0,1.094044,-82.96333,-9.18746)"
           style="font-style:normal;font-variant:normal;font-weight:normal;font-stretch:normal;font-size:198.59434509px;line-height:125%;font-family:'Arial Black';-inkscape-font-specification:'Arial Black, ';letter-spacing:0px;word-spacing:0px;fill:url(#linearGradient4159);fill-opacity:1;stroke:none;stroke-width:9.14039993;stroke-linecap:round;stroke-linejoin:round;stroke-miterlimit:4;stroke-dasharray:none;stroke-opacity:1"
           id="text4162">
          <path
             inkscape:connector-curvature="0"
             d="m 109.76626,733.3916 39.25305,-4.94832 3.39591,26.93836 -39.25305,4.94833 -3.39591,-26.93837 z m 4.89981,38.86822 39.25305,-4.94833 12.49209,99.09471 q 2.38927,18.95306 0.59374,27.19387 -1.69932,8.22869 -8.48883,14.06919 -6.78951,5.84051 -20.54732,7.57485 -11.3526,1.43113 -28.61357,0.18628 l 2.27876,-29.21752 q 4.8355,0.3678 7.04829,0.0889 5.00284,-0.63067 7.16385,-4.42164 2.17314,-3.69476 0.88755,-13.89285 l -12.06761,-95.72741 z"
             style="fill:url(#linearGradient4834);fill-opacity:1;stroke:none;stroke-width:9.14039993;stroke-linecap:round;stroke-linejoin:round;stroke-miterlimit:4;stroke-dasharray:none"
             id="path4797" />
          <path
             inkscape:connector-curvature="0"
             d="m 183.34509,838.51233 38.91571,-5.82168 q 2.80243,6.83881 7.32393,9.60175 4.5215,2.76294 11.78336,2.36523 7.93964,-0.43483 12.11115,-4.06233 3.251,-2.70304 3.04419,-6.47921 -0.23333,-4.26029 -4.81454,-6.34016 -3.28536,-1.47102 -17.16705,-3.13864 -20.72307,-2.45832 -28.92391,-5.01975 -8.10933,-2.66356 -14.02605,-9.62316 -5.8199,-6.9649 -6.32898,-16.26008 -0.55679,-10.1666 4.9465,-17.84876 5.5033,-7.68216 15.66735,-11.83208 10.15874,-4.24674 27.58721,-5.20125 18.39671,-1.00754 27.26472,1.32312 8.96484,2.32536 15.0978,7.9135 6.22978,5.58284 10.65427,15.44051 l -37.17286,5.72623 q -1.72282,-4.85852 -5.23895,-6.99671 -4.81728,-2.84386 -11.40137,-2.48327 -6.68091,0.3659 -9.64673,2.95621 -2.8743,2.48818 -2.6887,5.87705 0.20681,3.77617 4.18585,5.50055 3.97905,1.72438 17.03842,2.563 19.7774,1.15049 29.58047,4.59533 9.80307,3.44483 15.24098,10.52777 5.53473,7.07763 6.01728,15.88869 0.48786,8.90788 -4.47298,17.6286 -4.86401,8.71541 -16.20724,14.38664 -11.25171,5.5691 -31.19761,6.66149 -28.17602,1.54312 -40.62243,-5.83578 -12.34958,-7.38421 -16.54979,-22.01281 z"
             style="fill:url(#linearGradient4836);fill-opacity:1;stroke:none;stroke-width:9.14039993;stroke-linecap:round;stroke-linejoin:round;stroke-miterlimit:4;stroke-dasharray:none"
             id="path4799" />
          <path
             inkscape:connector-curvature="0"
             d="m 357.13529,758.38748 18.81216,0.008 -0.0121,28.89703 -18.81216,-0.008 -0.031,74.08499 -39.56371,-0.0166 0.031,-74.085 -14.73943,-0.006 0.0121,-28.89703 14.73943,0.006 0.002,-4.65456 q 0.003,-6.30304 1.36338,-13.86612 1.36075,-7.56309 5.04759,-12.31307 3.78385,-4.84691 10.47599,-7.75321 6.78915,-3.00323 19.78312,-2.99779 10.37578,0.004 30.15662,2.43687 l -4.37363,23.85276 q -7.07831,-1.1666 -11.44196,-1.16842 -5.33334,-0.002 -7.66139,1.83922 -2.32801,1.74448 -3.29933,5.62287 -0.48574,2.13314 -0.48862,9.018 z"
             style="fill:url(#linearGradient4838);fill-opacity:1;stroke:none;stroke-width:9.14039993;stroke-linecap:round;stroke-linejoin:round;stroke-miterlimit:4;stroke-dasharray:none"
             id="path4801" />
          <path
             inkscape:connector-curvature="0"
             d="m 387.62075,757.76463 46.75336,2.78881 14.64975,29.62796 20.68146,-27.52047 43.46223,2.5925 -37.96243,46.88954 34.34726,56.05989 -45.97898,-2.74262 -16.99769,-34.23655 -24.33499,31.77108 -42.68785,-2.54631 40.57428,-51.59086 -32.5064,-51.09297 z"
             style="fill:url(#linearGradient4840);fill-opacity:1;stroke:none;stroke-width:9.14039993;stroke-linecap:round;stroke-linejoin:round;stroke-miterlimit:4;stroke-dasharray:none"
             id="path4803" />
          <path
             inkscape:connector-curvature="0"
             d="m 538.97377,768.57482 36.50644,5.67904 -2.59357,16.67224 q 6.95429,-10.00756 13.13774,-13.16737 6.29417,-3.24072 14.53447,-1.95884 8.62357,1.34151 18.04132,8.30218 l -16.39562,25.90896 q -6.45169,-3.94773 -10.47602,-4.57377 -7.6654,-1.19244 -12.86514,4.47566 -7.42272,7.97197 -11.22365,32.40542 l -5.3064,34.11101 -39.18933,-6.0964 15.82976,-101.75813 z"
             style="fill:url(#linearGradient4842);fill-opacity:1;stroke:none;stroke-width:9.14039993;stroke-linecap:round;stroke-linejoin:round;stroke-miterlimit:4;stroke-dasharray:none"
             id="path4805" />
        </g>
      </g>
    </g>
  </g>
</svg>
