<?xml version="1.0" encoding="UTF-8"?>
<svg width="172.93mm" height="82.801mm" version="1.1" viewBox="0 0 612.76 293.39" xmlns="http://www.w3.org/2000/svg">
 <defs>
  <linearGradient id="linearGradient4842" x1="289.37" x2="285.06" y1="19.143" y2="224.45" gradientUnits="userSpaceOnUse">
   <stop stop-color="#f58400" offset="0"/>
   <stop stop-color="#f5a700" offset="1"/>
  </linearGradient>
 </defs>
 <path d="m304.59 1.0384c-10.618-0.0044-19.495 0.94444-27.673 4.5521-6.7052 2.9211-12.766 7.2271-17.258 12.981a15.002 15.002 0 0 0-0.0238 0.03479c-4.5049 5.8041-7.1222 12.709-8.4359 20.01-0.48619 2.7024-0.82989 5.3214-1.1152 7.9122h-1.7377a15.002 15.002 0 0 0-15.006 14.995l-2e-3 4.0797c-1.4059-1.6103-2.895-3.1306-4.477-4.5521-6.3835-5.8033-14.254-9.8348-22.79-12.052-7.0759-1.8563-14.854-2.3579-24.354-2.2559a15.002 15.002 0 0 0-0.011-0.0019c-3.177 0.03427-6.5299 0.1503-10.071 0.34425-13.735 0.75222-25.237 2.7014-35.08 6.8044-9.5146 3.8942-17.813 9.9697-23.618 18.073h4e-3c-5.9774 8.344-8.7629 18.768-8.1978 29.085 0.10277 1.8765 0.42193 3.7279 0.75441 5.5739l-0.4889 0.0605-4.695-37.241a15.002 15.002 0 0 0-2.472-6.0609 15.002 15.002 0 0 0 0.82217-6.9893l-3.7136-29.473a15.002 15.002 0 0 0-16.76-13.004l-42.943 5.4127a15.002 15.002 0 0 0-13.006 16.758l3.7153 29.473a15.002 15.002 0 0 0 2.5709 6.3081 15.002 15.002 0 0 0-0.92471 6.7421l13.204 104.73c0.15205 1.2061 0.14672 2.1831 0.14283 3.1312-0.38146-0.0198-0.22302 8e-3 -0.64272-0.0238a15.002 15.002 0 0 0-16.094 13.792l-2.4921 31.964a15.002 15.002 0 0 0 8.0623 14.107l54.148 39.134a15.002 15.002 0 0 0 10.472 5.4604c10.521 0.7422 19.536 0.74501 27.479-0.23438 9.6127-1.1856 18.327-3.7613 25.474-9.7763 6.0534-5.0941 10.62-12.301 12.292-20.137 1.4913-6.7661 1.1268-13.897 0.23438-22.23 1.8407 1.5214 3.7238 2.9997 5.7954 4.2115a15.002 15.002 0 0 0 0.0476 0.0275c11.77 6.8264 25.697 7.8462 43.229 6.9069 12.635-0.6769 23.313-2.6075 32.541-7.0754a15.002 15.002 0 0 0 0.0531-0.0275c7.0644-3.4552 13.232-8.2698 17.776-14.411l-4e-3 2.3218a15.002 15.002 0 0 0 14.993 15.006l33.994 0.0146a15.002 15.002 0 0 0 9.9392-4.4422 15.002 15.002 0 0 0 8.4926 3.6421l36.677 2.1406a15.002 15.002 0 0 0 12.684-5.7277l6.385-8.1539 3.9424 7.7675a15.002 15.002 0 0 0 12.503 8.185l39.506 2.3054a15.002 15.002 0 0 0 5.0996-0.63723 15.002 15.002 0 0 0 5.1948 2.2834l33.67 5.1252a15.002 15.002 0 0 0 15.335-7.7675l46.732-49.764 47.021-79.04 15.002-23.707a15.002 15.002 0 0 0-3.759-20.085c-8.2595-6.1047-16.987-10.385-26.35-11.842-6.7539-1.0506-13.758-0.54961-20.219 1.6608a15.002 15.002 0 0 0-7.2163-3.3509l-39.942-6.2129a15.002 15.002 0 0 0-15.791 9.4888 15.002 15.002 0 0 0-13.861-13.279l-47.548-2.8345a15.002 15.002 0 0 0-12.885 5.9621l-7.9873 10.631-5.2278-10.573a15.002 15.002 0 0 0-12.554-8.326l-45.371-2.7045 4.5521-24.833a15.002 15.002 0 0 0-12.92-17.593c-14.741-1.8133-26.081-2.7765-34.818-2.7796z" fill="#1a1a1a"/>
 <path d="m506.7 72.7 39.94 6.2131-2.8375 18.24q7.6083-10.949 14.373-14.406 6.8861-3.5455 15.901-2.1431 9.4346 1.4677 19.738 9.083l-17.938 28.346q-7.0584-4.319-11.461-5.0039-8.3863-1.3046-14.075 4.8966-8.1208 8.7217-12.279 35.453l-5.8054 37.319-42.875-6.6697zm-165.59-11.827 51.15 3.0511 16.027 32.414 22.626-30.109 47.55 2.8363-41.533 51.299 37.577 61.332-50.303-3.0006-18.596-37.456-26.624 34.759-46.702-2.7858 44.39-56.443zm-33.352 0.68142 20.581 9e-3 -0.0132 31.615-20.581-9e-3 -0.0339 81.052-43.284-0.0182 0.0339-81.052-16.126-7e-3 0.0132-31.615 16.126 7e-3 2e-3 -5.0923q3e-3 -6.8958 1.4916-15.17 1.4887-8.2744 5.5223-13.471 4.1397-5.3027 11.461-8.4824 7.4276-3.2857 21.644-3.2797 11.352 4e-3 32.993 2.666l-4.7849 26.096q-7.744-1.2763-12.518-1.2783-5.8349-2e-3 -8.3819 2.0122-2.5469 1.9085-3.6096 6.1517-0.53142 2.3338-0.53457 9.8661zm-190.13 87.66 42.575-6.3692q3.066 7.482 8.0127 10.505 4.9467 3.0228 12.892 2.5877 8.6863-0.47572 13.25-4.4444 3.5567-2.9572 3.3305-7.0885-0.25527-4.6609-5.2673-6.9364-3.5943-1.6094-18.782-3.4338-22.672-2.6895-31.644-5.4918-8.872-2.914-15.345-10.528-6.3672-7.6199-6.9242-17.789-0.60915-11.123 5.4117-19.527 6.0209-8.4046 17.141-12.945 11.114-4.6461 30.182-5.6904 20.127-1.1023 29.829 1.4476 9.8079 2.544 16.518 8.6577 6.8156 6.1079 11.656 16.893l-40.669 6.2648q-1.8848-5.3154-5.7316-7.6547-5.2703-3.1113-12.474-2.7168-7.3092 0.40031-10.554 3.2342-3.1446 2.7222-2.9416 6.4298 0.22626 4.1313 4.5795 6.0178 4.3533 1.8866 18.641 2.804 21.637 1.2587 32.362 5.0275t16.674 11.518q6.0552 7.7432 6.5832 17.383 0.53374 9.7456-4.8936 19.286-5.3214 9.535-17.731 15.74-12.31 6.0928-34.132 7.288-30.826 1.6882-44.443-6.3846-13.511-8.0786-18.106-24.083zm-80.498-115.01 42.945-5.4137 3.7153 29.472-42.945 5.4137zm5.3606 42.524 42.945-5.4137 13.667 108.41q2.614 20.735 0.64958 29.751-1.8591 9.0026-9.2872 15.392t-22.48 8.2872q-12.42 1.5657-31.305 0.2038l2.4931-31.965q5.2902 0.40239 7.7111 0.0973 5.4733-0.68998 7.8376-4.8375 2.3775-4.0422 0.97102-15.199l-13.202-104.73z" fill="url(#linearGradient4842)"/>
</svg>
